<?xml version="1.0" encoding="UTF-8" standalone="no"?>
<!-- Created with Inkscape (http://www.inkscape.org/) -->

<svg
   width="512"
   height="512"
   viewBox="0 0 135.46667 135.46666"
   version="1.1"
   id="svg822"
   inkscape:version="1.1.2 (0a00cf5339, 2022-02-04)"
   sodipodi:docname="favicon.svg"
   inkscape:export-filename="/home/dmpop/Documents/tinypage/favicon.png"
   inkscape:export-xdpi="96.000008"
   inkscape:export-ydpi="96.000008"
   xmlns:inkscape="http://www.inkscape.org/namespaces/inkscape"
   xmlns:sodipodi="http://sodipodi.sourceforge.net/DTD/sodipodi-0.dtd"
   xmlns="http://www.w3.org/2000/svg"
   xmlns:svg="http://www.w3.org/2000/svg"
   xmlns:rdf="http://www.w3.org/1999/02/22-rdf-syntax-ns#"
   xmlns:cc="http://creativecommons.org/ns#"
   xmlns:dc="http://purl.org/dc/elements/1.1/">
  <defs
     id="defs816" />
  <sodipodi:namedview
     id="base"
     pagecolor="#ffffff"
     bordercolor="#666666"
     borderopacity="1.0"
     inkscape:pageopacity="0.0"
     inkscape:pageshadow="2"
     inkscape:zoom="0.7"
     inkscape:cx="475.71429"
     inkscape:cy="206.42857"
     inkscape:document-units="mm"
     inkscape:current-layer="g817"
     showgrid="false"
     fit-margin-top="0"
     fit-margin-left="0"
     fit-margin-right="0"
     fit-margin-bottom="0"
     inkscape:window-width="1920"
     inkscape:window-height="1012"
     inkscape:window-x="0"
     inkscape:window-y="0"
     inkscape:window-maximized="1"
     showguides="true"
     inkscape:guide-bbox="true"
     units="px"
     inkscape:pagecheckerboard="0" />
  <metadata
     id="metadata819">
    <rdf:RDF>
      <cc:Work
         rdf:about="">
        <dc:format>image/svg+xml</dc:format>
        <dc:type
           rdf:resource="http://purl.org/dc/dcmitype/StillImage" />
      </cc:Work>
    </rdf:RDF>
  </metadata>
  <g
     inkscape:label="Layer 1"
     inkscape:groupmode="layer"
     id="layer1"
     transform="translate(-59.032397,-53.246926)">
    <g
       id="g831"
       transform="matrix(1.4705882,0,0,1.4705882,-45.466905,-44.722164)">
      <g
         id="g817"
         transform="matrix(0.92429716,0,0,0.92429716,7.9864463,7.9781872)">
        <g
           id="g82669"
           transform="matrix(3.8951111,0,0,3.8951111,-886.59852,-566.80409)">
          <path
             id="path82484"
             style="fill:#ff6600;fill-opacity:0.533549;stroke-width:3.30909;stroke-opacity:0.995902"
             d="m 269.00925,174.72859 c 0,6.21446 -5.78923,11.0912 -12.00369,11.0912 -6.21446,0 -11.5683,-5.49278 -11.5683,-11.70723 0,-6.21446 5.17277,-10.45339 11.38723,-10.45339 6.21446,0 12.18476,4.85496 12.18476,11.06942 z"
             sodipodi:nodetypes="sssss" />
          <path
             id="path82484-5"
             style="fill:#ffcc00;fill-opacity:0.533549;stroke-width:3.30909;stroke-opacity:0.995902"
             d="m 270.42402,173.93271 c 0,6.21446 -5.03781,11.25227 -11.25227,11.25227 -6.21446,0 -11.25227,-5.03781 -11.25227,-11.25227 0,-6.21446 3.80144,-10.55642 10.01589,-10.55642 6.21446,0 12.48865,4.34196 12.48865,10.55642 z"
             sodipodi:nodetypes="sssss" />
          <path
             id="path82484-5-0"
             style="fill:#aad400;fill-opacity:0.533549;stroke-width:3.30909;stroke-opacity:0.995902"
             d="m 268.56092,174.12541 c 0,6.21446 -5.03781,11.25227 -11.25227,11.25227 -6.21445,0 -11.25226,-5.03782 -11.25226,-11.25227 0,-6.21445 5.20068,-10.13965 11.41514,-10.13966 6.21445,0 11.08939,3.9252 11.08939,10.13966 z"
             sodipodi:nodetypes="sssss" />
        </g>
      </g>
    </g>
  </g>
</svg>
